<svg id="SvgjsSvg1006" width="605" height="253" xmlns="http://www.w3.org/2000/svg" version="1.1" xmlns:xlink="http://www.w3.org/1999/xlink" xmlns:svgjs="http://svgjs.com/svgjs"><defs id="SvgjsDefs1007"><marker id="SvgjsMarker1036" markerWidth="16" markerHeight="12" refX="16" refY="6" viewBox="0 0 16 12" orient="auto" markerUnits="userSpaceOnUse"><path id="SvgjsPath1037" d="M0,2 L14,6 L0,11 L0,2" fill="#323232" stroke="#323232" stroke-width="2"></path></marker><marker id="SvgjsMarker1040" markerWidth="16" markerHeight="12" refX="16" refY="6" viewBox="0 0 16 12" orient="auto" markerUnits="userSpaceOnUse"><path id="SvgjsPath1041" d="M0,2 L14,6 L0,11 L0,2" fill="#323232" stroke="#323232" stroke-width="2"></path></marker><marker id="SvgjsMarker1044" markerWidth="16" markerHeight="12" refX="16" refY="6" viewBox="0 0 16 12" orient="auto" markerUnits="userSpaceOnUse"><path id="SvgjsPath1045" d="M0,2 L14,6 L0,11 L0,2" fill="#323232" stroke="#323232" stroke-width="2"></path></marker></defs><g id="SvgjsG1008" transform="translate(219,25)"><path id="SvgjsPath1009" d="M 0 0L 151 0L 151 203L 0 203Z" stroke="#323232" stroke-width="2" fill-opacity="1" fill="#ffffff"></path><g id="SvgjsG1010"><text id="SvgjsText1011" font-family="微软雅黑" text-anchor="middle" font-size="13px" width="39" fill="#323232" font-weight="400" align="middle" anchor="middle" family="微软雅黑" size="13px" weight="400" font-style="" y="83.55" transform="rotate(0)"><tspan id="SvgjsTspan1012" dy="16" x="75.5"><tspan id="SvgjsTspan1013" style="text-decoration:;">单片机</tspan></tspan><tspan id="SvgjsTspan1014" dy="16" x="75.5"><tspan id="SvgjsTspan1015" style="text-decoration:;">stm32</tspan></tspan></text></g></g><g id="SvgjsG1016" transform="translate(28,56)"><path id="SvgjsPath1017" d="M 0 0L 150 0L 150 42L 0 42Z" stroke="#323232" stroke-width="2" fill-opacity="1" fill="#ffffff"></path><g id="SvgjsG1018"><text id="SvgjsText1019" font-family="微软雅黑" text-anchor="middle" font-size="13px" width="104" fill="#323232" font-weight="400" align="middle" anchor="middle" family="微软雅黑" size="13px" weight="400" font-style="" y="11.05" transform="rotate(0)"><tspan id="SvgjsTspan1020" dy="16" x="75"><tspan id="SvgjsTspan1021" style="text-decoration:;">非接触水位传感器</tspan></tspan></text></g></g><g id="SvgjsG1022" transform="translate(25,144)"><path id="SvgjsPath1023" d="M 0 0L 150 0L 150 42L 0 42Z" stroke="#323232" stroke-width="2" fill-opacity="1" fill="#ffffff"></path><g id="SvgjsG1024"><text id="SvgjsText1025" font-family="微软雅黑" text-anchor="middle" font-size="13px" width="104" fill="#323232" font-weight="400" align="middle" anchor="middle" family="微软雅黑" size="13px" weight="400" font-style="" y="11.05" transform="rotate(0)"><tspan id="SvgjsTspan1026" dy="16" x="75"><tspan id="SvgjsTspan1027" style="text-decoration:;">压力传感器传感器</tspan></tspan></text></g></g><g id="SvgjsG1028" transform="translate(430,105.5)"><path id="SvgjsPath1029" d="M 0 0L 150 0L 150 42L 0 42Z" stroke="#323232" stroke-width="2" fill-opacity="1" fill="#ffffff"></path><g id="SvgjsG1030"><text id="SvgjsText1031" font-family="微软雅黑" text-anchor="middle" font-size="13px" width="65" fill="#323232" font-weight="400" align="middle" anchor="middle" family="微软雅黑" size="13px" weight="400" font-style="" y="11.05" transform="rotate(0)"><tspan id="SvgjsTspan1032" dy="16" x="75"><tspan id="SvgjsTspan1033" style="text-decoration:;">继电器开关</tspan></tspan></text></g></g><g id="SvgjsG1034"><path id="SvgjsPath1035" d="M178 77L198.5 77L198.5 77L219 77" stroke="#323232" stroke-width="2" fill="none" marker-end="url(#SvgjsMarker1036)"></path></g><g id="SvgjsG1038"><path id="SvgjsPath1039" d="M175 165L197 165L197 165L219 165" stroke="#323232" stroke-width="2" fill="none" marker-end="url(#SvgjsMarker1040)"></path></g><g id="SvgjsG1042"><path id="SvgjsPath1043" d="M370 126.5L400 126.5L400 126.5L430 126.5" stroke="#323232" stroke-width="2" fill="none" marker-end="url(#SvgjsMarker1044)"></path></g></svg>