<svg id="SvgjsSvg1006" width="836.7250366210938" height="579.2125015258789" xmlns="http://www.w3.org/2000/svg" version="1.1" xmlns:xlink="http://www.w3.org/1999/xlink" xmlns:svgjs="http://svgjs.com/svgjs"><defs id="SvgjsDefs1007"><marker id="SvgjsMarker1022" markerWidth="16" markerHeight="12" refX="16" refY="6" viewBox="0 0 16 12" orient="auto" markerUnits="userSpaceOnUse"><path id="SvgjsPath1023" d="M0,2 L14,6 L0,11 L0,2" fill="#323232" stroke="#323232" stroke-width="2"></path></marker><marker id="SvgjsMarker1032" markerWidth="16" markerHeight="12" refX="16" refY="6" viewBox="0 0 16 12" orient="auto" markerUnits="userSpaceOnUse"><path id="SvgjsPath1033" d="M0,2 L14,6 L0,11 L0,2" fill="#323232" stroke="#323232" stroke-width="2"></path></marker><marker id="SvgjsMarker1042" markerWidth="16" markerHeight="12" refX="16" refY="6" viewBox="0 0 16 12" orient="auto" markerUnits="userSpaceOnUse"><path id="SvgjsPath1043" d="M0,2 L14,6 L0,11 L0,2" fill="#323232" stroke="#323232" stroke-width="2"></path></marker><marker id="SvgjsMarker1046" markerWidth="16" markerHeight="12" refX="16" refY="6" viewBox="0 0 16 12" orient="auto" markerUnits="userSpaceOnUse"><path id="SvgjsPath1047" d="M0,2 L14,6 L0,11 L0,2" fill="#323232" stroke="#323232" stroke-width="2"></path></marker><marker id="SvgjsMarker1072" markerWidth="16" markerHeight="12" refX="16" refY="6" viewBox="0 0 16 12" orient="auto" markerUnits="userSpaceOnUse"><path id="SvgjsPath1073" d="M0,2 L14,6 L0,11 L0,2" fill="#323232" stroke="#323232" stroke-width="2"></path></marker><marker id="SvgjsMarker1076" markerWidth="16" markerHeight="12" refX="16" refY="6" viewBox="0 0 16 12" orient="auto" markerUnits="userSpaceOnUse"><path id="SvgjsPath1077" d="M0,2 L14,6 L0,11 L0,2" fill="#323232" stroke="#323232" stroke-width="2"></path></marker><marker id="SvgjsMarker1086" markerWidth="16" markerHeight="12" refX="16" refY="6" viewBox="0 0 16 12" orient="auto" markerUnits="userSpaceOnUse"><path id="SvgjsPath1087" d="M0,2 L14,6 L0,11 L0,2" fill="#323232" stroke="#323232" stroke-width="2"></path></marker><marker id="SvgjsMarker1090" markerWidth="16" markerHeight="12" refX="16" refY="6" viewBox="0 0 16 12" orient="auto" markerUnits="userSpaceOnUse"><path id="SvgjsPath1091" d="M0,2 L14,6 L0,11 L0,2" fill="#323232" stroke="#323232" stroke-width="2"></path></marker><marker id="SvgjsMarker1094" markerWidth="16" markerHeight="12" refX="16" refY="6" viewBox="0 0 16 12" orient="auto" markerUnits="userSpaceOnUse"><path id="SvgjsPath1095" d="M0,2 L14,6 L0,11 L0,2" fill="#323232" stroke="#323232" stroke-width="2"></path></marker><marker id="SvgjsMarker1104" markerWidth="16" markerHeight="12" refX="16" refY="6" viewBox="0 0 16 12" orient="auto" markerUnits="userSpaceOnUse"><path id="SvgjsPath1105" d="M0,2 L14,6 L0,11 L0,2" fill="#323232" stroke="#323232" stroke-width="2"></path></marker><marker id="SvgjsMarker1108" markerWidth="16" markerHeight="12" refX="16" refY="6" viewBox="0 0 16 12" orient="auto" markerUnits="userSpaceOnUse"><path id="SvgjsPath1109" d="M0,2 L14,6 L0,11 L0,2" fill="#323232" stroke="#323232" stroke-width="2"></path></marker><marker id="SvgjsMarker1112" markerWidth="16" markerHeight="12" refX="16" refY="6" viewBox="0 0 16 12" orient="auto" markerUnits="userSpaceOnUse"><path id="SvgjsPath1113" d="M0,2 L14,6 L0,11 L0,2" fill="#323232" stroke="#323232" stroke-width="2"></path></marker></defs><g id="SvgjsG1008" transform="translate(431.45137363009906,25.00139194064669)"><path id="SvgjsPath1009" d="M 0 0L 149 0L 149 44L 0 44Z" stroke="#323232" stroke-width="2" fill-opacity="1" fill="#ffffff"></path><g id="SvgjsG1010"><text id="SvgjsText1011" font-family="微软雅黑" text-anchor="middle" font-size="13px" width="127" fill="#323232" font-weight="400" align="middle" anchor="middle" family="微软雅黑" size="13px" weight="400" font-style="" y="12.05" transform="rotate(0)"><tspan id="SvgjsTspan1012" dy="16" x="74.5"><tspan id="SvgjsTspan1013" style="text-decoration:;">Initialize all modules</tspan></tspan></text></g></g><g id="SvgjsG1014" transform="translate(434.70137363009906,124.0013919406467)"><path id="SvgjsPath1015" d="M 0 34L 71.25 0L 142.5 34L 71.25 68Z" stroke="#323232" stroke-width="2" fill-opacity="1" fill="#ffffff"></path><g id="SvgjsG1016"><text id="SvgjsText1017" font-family="微软雅黑" text-anchor="middle" font-size="13px" width="78" fill="#323232" font-weight="400" align="middle" anchor="middle" family="微软雅黑" size="13px" weight="400" font-style="" y="24.39" transform="rotate(0)"><tspan id="SvgjsTspan1018" dy="16" x="71.5"><tspan id="SvgjsTspan1019" style="text-decoration:;">Power is low</tspan></tspan></text></g></g><g id="SvgjsG1020"><path id="SvgjsPath1021" d="M505.9513736300987 69.0013919406467L505.9513736300987 96.5013919406467L505.9513736300987 96.5013919406467L505.9513736300987 124.0013919406467" stroke="#323232" stroke-width="2" fill="none" marker-end="url(#SvgjsMarker1022)"></path></g><g id="SvgjsG1024" transform="translate(434.70137363009906,230.00139194064678)"><path id="SvgjsPath1025" d="M 0 34L 71.25 0L 142.5 34L 71.25 68Z" stroke="#323232" stroke-width="2" fill-opacity="1" fill="#ffffff"></path><g id="SvgjsG1026"><text id="SvgjsText1027" font-family="微软雅黑" text-anchor="middle" font-size="13px" width="109" fill="#323232" font-weight="400" align="middle" anchor="middle" family="微软雅黑" size="13px" weight="400" font-style="" y="24.39" transform="rotate(0)"><tspan id="SvgjsTspan1028" dy="16" x="71.5"><tspan id="SvgjsTspan1029" style="text-decoration:;">Water level is low</tspan></tspan></text></g></g><g id="SvgjsG1030"><path id="SvgjsPath1031" d="M505.9513736300987 192.0013919406467L505.9513736300987 211.0013919406467L505.9513736300987 211.0013919406467L505.9513736300987 230.00139194064678" stroke="#323232" stroke-width="2" fill="none" marker-end="url(#SvgjsMarker1032)"></path></g><g id="SvgjsG1034" transform="translate(25.00692918565545,446.1777539654983)"><path id="SvgjsPath1035" d="M 0 0L 146 0L 146 38L 0 38Z" stroke="#323232" stroke-width="2" fill-opacity="1" fill="#ffffff"></path><g id="SvgjsG1036"><text id="SvgjsText1037" font-family="微软雅黑" text-anchor="middle" font-size="13px" width="63" fill="#323232" font-weight="400" align="middle" anchor="middle" family="微软雅黑" size="13px" weight="400" font-style="" y="9.05" transform="rotate(0)"><tspan id="SvgjsTspan1038" dy="16" x="73"><tspan id="SvgjsTspan1039" style="text-decoration:;">Stop work</tspan></tspan></text></g></g><g id="SvgjsG1040"><path id="SvgjsPath1041" d="M434.70137363009906 158.0013919406467L98.00692918565531 158.0013919406467L98.00692918565531 446.1777539654983" stroke="#323232" stroke-width="2" fill="none" marker-end="url(#SvgjsMarker1042)"></path></g><g id="SvgjsG1044"><path id="SvgjsPath1045" d="M434.70137363009906 264.0013919406468L98.00692918565531 264.0013919406468L98.00692918565531 446.1777539654983" stroke="#323232" stroke-width="2" fill="none" marker-end="url(#SvgjsMarker1046)"></path></g><g id="SvgjsG1048" transform="translate(643.4513736300983,352.1013904147679)"><path id="SvgjsPath1049" d="M 0 0L 149 0L 149 44L 0 44Z" stroke="#323232" stroke-width="2" fill-opacity="1" fill="#ffffff"></path><g id="SvgjsG1050"><text id="SvgjsText1051" font-family="微软雅黑" text-anchor="middle" font-size="13px" width="67" fill="#323232" font-weight="400" align="middle" anchor="middle" family="微软雅黑" size="13px" weight="400" font-style="" y="12.05" transform="rotate(0)"><tspan id="SvgjsTspan1052" dy="16" x="74.5"><tspan id="SvgjsTspan1053" style="text-decoration:;"> Obstacle </tspan></tspan><tspan id="SvgjsTspan1054" dy="16" x="74.5"><tspan id="SvgjsTspan1055" style="text-decoration:;">avoidance </tspan></tspan></text></g></g><g id="SvgjsG1056" transform="translate(422.81387668185687,332.5013919406468)"><path id="SvgjsPath1057" d="M 0 41.599998474121094L 83.13749694824219 0L 166.27499389648438 41.599998474121094L 83.13749694824219 83.19999694824219Z" stroke="#323232" stroke-width="2" fill-opacity="1" fill="#ffffff"></path><g id="SvgjsG1058"><text id="SvgjsText1059" font-family="微软雅黑" text-anchor="middle" font-size="13px" width="118" fill="#323232" font-weight="400" align="middle" anchor="middle" family="微软雅黑" size="13px" weight="400" font-style="" y="24.065998458862307" transform="rotate(0)"><tspan id="SvgjsTspan1060" dy="16" x="83.5"><tspan id="SvgjsTspan1061" style="text-decoration:;">Recive respberry PI </tspan></tspan><tspan id="SvgjsTspan1062" dy="16" x="83.5"><tspan id="SvgjsTspan1063" style="text-decoration:;">motion command</tspan></tspan></text></g></g><g id="SvgjsG1064" transform="translate(25.006929185655437,516.2236141628683)"><path id="SvgjsPath1065" d="M 0 0L 146 0L 146 38L 0 38Z" stroke="#323232" stroke-width="2" fill-opacity="1" fill="#ffffff"></path><g id="SvgjsG1066"><text id="SvgjsText1067" font-family="微软雅黑" text-anchor="middle" font-size="13px" width="108" fill="#323232" font-weight="400" align="middle" anchor="middle" family="微软雅黑" size="13px" weight="400" font-style="" y="9.05" transform="rotate(0)"><tspan id="SvgjsTspan1068" dy="16" x="73"><tspan id="SvgjsTspan1069" style="text-decoration:;">Back base station</tspan></tspan></text></g></g><g id="SvgjsG1070"><path id="SvgjsPath1071" d="M98.00692918565531 484.1777539654988L98.00692918565531 500.20068406418363L98.00692918565531 500.20068406418363L98.00692918565531 516.2236141628683" stroke="#323232" stroke-width="2" fill="none" marker-end="url(#SvgjsMarker1072)"></path></g><g id="SvgjsG1074"><path id="SvgjsPath1075" d="M505.9513736300987 298.0013919406468L505.9513736300987 315.2513919406468L505.9513736300987 315.2513919406468L505.9513736300987 332.5013919406468" stroke="#323232" stroke-width="2" fill="none" marker-end="url(#SvgjsMarker1076)"></path></g><g id="SvgjsG1078" transform="translate(432.95137363009906,446.0013919406468)"><path id="SvgjsPath1079" d="M 0 0L 146 0L 146 38L 0 38Z" stroke="#323232" stroke-width="2" fill-opacity="1" fill="#ffffff"></path><g id="SvgjsG1080"><text id="SvgjsText1081" font-family="微软雅黑" text-anchor="middle" font-size="13px" width="108" fill="#323232" font-weight="400" align="middle" anchor="middle" family="微软雅黑" size="13px" weight="400" font-style="" y="9.05" transform="rotate(0)"><tspan id="SvgjsTspan1082" dy="16" x="73"><tspan id="SvgjsTspan1083" style="text-decoration:;">Spread operation</tspan></tspan></text></g></g><g id="SvgjsG1084"><path id="SvgjsPath1085" d="M589.0888705783404 374.1013904147679L616.2701221042194 374.1013904147679L616.2701221042194 374.1013904147679L643.4513736300983 374.1013904147679" stroke="#323232" stroke-width="2" fill="none" marker-end="url(#SvgjsMarker1086)"></path></g><g id="SvgjsG1088"><path id="SvgjsPath1089" d="M505.9513736300987 415.70138888888897L505.9513736300987 430.8513904147679L505.9513736300987 430.8513904147679L505.9513736300987 446.0013919406468" stroke="#323232" stroke-width="2" fill="none" marker-end="url(#SvgjsMarker1090)"></path></g><g id="SvgjsG1092"><path id="SvgjsPath1093" d="M717.9513736300983 396.1013904147679L717.9513736300983 465.0013919406468L578.9513736300983 465.0013919406468" stroke="#323232" stroke-width="2" fill="none" marker-end="url(#SvgjsMarker1094)"></path></g><g id="SvgjsG1096" transform="translate(210.59165445963532,423.48234151111416)"><path id="SvgjsPath1097" d="M 0 41.599998474121094L 83.13749694824219 0L 166.27499389648438 41.599998474121094L 83.13749694824219 83.19999694824219Z" stroke="#323232" stroke-width="2" fill-opacity="1" fill="#ffffff"></path><g id="SvgjsG1098"><text id="SvgjsText1099" font-family="微软雅黑" text-anchor="middle" font-size="13px" width="118" fill="#323232" font-weight="400" align="middle" anchor="middle" family="微软雅黑" size="13px" weight="400" font-style="" y="32.0659984588623" transform="rotate(0)"><tspan id="SvgjsTspan1100" dy="16" x="83.5"><tspan id="SvgjsTspan1101" style="text-decoration:;">Reach end location</tspan></tspan></text></g></g><g id="SvgjsG1102"><path id="SvgjsPath1103" d="M210.59165445963532 465.08233998523525L190.7992918226454 465.08233998523525L190.7992918226454 465.1777539654983L171.00692918565545 465.1777539654983" stroke="#323232" stroke-width="2" fill="none" marker-end="url(#SvgjsMarker1104)"></path></g><g id="SvgjsG1106"><path id="SvgjsPath1107" d="M293.7291514078775 506.6823384593563L293.7291514078775 536.6823384593563L811.3395665486648 536.6823384593563L811.3395665486648 94.0013919406467L505.95137363009906 94.0013919406467L505.95137363009906 124.0013919406467" stroke="#323232" stroke-width="2" fill="none" marker-end="url(#SvgjsMarker1108)"></path></g><g id="SvgjsG1110"><path id="SvgjsPath1111" d="M432.95137363009906 465.0013919406468L404.9090109931094 465.0013919406468L404.9090109931094 393.48234151111416L293.7291514078775 393.48234151111416L293.7291514078775 423.48234151111416" stroke="#323232" stroke-width="2" fill="none" marker-end="url(#SvgjsMarker1112)"></path></g><g id="SvgjsG1114" transform="translate(122.29583401150171,430.73472340901685)"><path id="SvgjsPath1115" d="M 0 0L 160 0L 160 40L 0 40Z" stroke="none" fill="none"></path><g id="SvgjsG1116"><text id="SvgjsText1117" font-family="微软雅黑" text-anchor="middle" font-size="13px" width="22" fill="#323232" font-weight="400" align="middle" anchor="middle" family="微软雅黑" size="13px" weight="400" font-style="" y="10.05" transform="rotate(0)"><tspan id="SvgjsTspan1118" dy="16" x="80"><tspan id="SvgjsTspan1119" style="text-decoration:;">YES</tspan></tspan></text></g></g><g id="SvgjsG1120" transform="translate(342.2958340115014,128.5125011867951)"><path id="SvgjsPath1121" d="M 0 0L 160 0L 160 40L 0 40Z" stroke="none" fill="none"></path><g id="SvgjsG1122"><text id="SvgjsText1123" font-family="微软雅黑" text-anchor="middle" font-size="13px" width="22" fill="#323232" font-weight="400" align="middle" anchor="middle" family="微软雅黑" size="13px" weight="400" font-style="" y="10.05" transform="rotate(0)"><tspan id="SvgjsTspan1124" dy="16" x="80"><tspan id="SvgjsTspan1125" style="text-decoration:;">YES</tspan></tspan></text></g></g><g id="SvgjsG1126" transform="translate(340.0736117892792,237.40139007568405)"><path id="SvgjsPath1127" d="M 0 0L 160 0L 160 40L 0 40Z" stroke="none" fill="none"></path><g id="SvgjsG1128"><text id="SvgjsText1129" font-family="微软雅黑" text-anchor="middle" font-size="13px" width="22" fill="#323232" font-weight="400" align="middle" anchor="middle" family="微软雅黑" size="13px" weight="400" font-style="" y="10.05" transform="rotate(0)"><tspan id="SvgjsTspan1130" dy="16" x="80"><tspan id="SvgjsTspan1131" style="text-decoration:;">YES</tspan></tspan></text></g></g><g id="SvgjsG1132" transform="translate(448.9625006781679,412.95694563123925)"><path id="SvgjsPath1133" d="M 0 0L 160 0L 160 40L 0 40Z" stroke="none" fill="none"></path><g id="SvgjsG1134"><text id="SvgjsText1135" font-family="微软雅黑" text-anchor="middle" font-size="13px" width="22" fill="#323232" font-weight="400" align="middle" anchor="middle" family="微软雅黑" size="13px" weight="400" font-style="" y="10.05" transform="rotate(0)"><tspan id="SvgjsTspan1136" dy="16" x="80"><tspan id="SvgjsTspan1137" style="text-decoration:;">YES</tspan></tspan></text></g></g><g id="SvgjsG1138" transform="translate(446.7402784559456,188.51250118679525)"><path id="SvgjsPath1139" d="M 0 0L 160 0L 160 40L 0 40Z" stroke="none" fill="none"></path><g id="SvgjsG1140"><text id="SvgjsText1141" font-family="微软雅黑" text-anchor="middle" font-size="13px" width="21" fill="#323232" font-weight="400" align="middle" anchor="middle" family="微软雅黑" size="13px" weight="400" font-style="" y="10.05" transform="rotate(0)"><tspan id="SvgjsTspan1142" dy="16" x="80"><tspan id="SvgjsTspan1143" style="text-decoration:;">NO</tspan></tspan></text></g></g><g id="SvgjsG1144" transform="translate(444.5180562337234,297.401390075684)"><path id="SvgjsPath1145" d="M 0 0L 160 0L 160 40L 0 40Z" stroke="none" fill="none"></path><g id="SvgjsG1146"><text id="SvgjsText1147" font-family="微软雅黑" text-anchor="middle" font-size="13px" width="21" fill="#323232" font-weight="400" align="middle" anchor="middle" family="微软雅黑" size="13px" weight="400" font-style="" y="10.05" transform="rotate(0)"><tspan id="SvgjsTspan1148" dy="16" x="80"><tspan id="SvgjsTspan1149" style="text-decoration:;">NO</tspan></tspan></text></g></g><g id="SvgjsG1150" transform="translate(531.1847229003899,339.6236122979061)"><path id="SvgjsPath1151" d="M 0 0L 160 0L 160 40L 0 40Z" stroke="none" fill="none"></path><g id="SvgjsG1152"><text id="SvgjsText1153" font-family="微软雅黑" text-anchor="middle" font-size="13px" width="21" fill="#323232" font-weight="400" align="middle" anchor="middle" family="微软雅黑" size="13px" weight="400" font-style="" y="10.05" transform="rotate(0)"><tspan id="SvgjsTspan1154" dy="16" x="80"><tspan id="SvgjsTspan1155" style="text-decoration:;">NO</tspan></tspan></text></g></g><g id="SvgjsG1156" transform="translate(228.96250067816845,504.0680567423502)"><path id="SvgjsPath1157" d="M 0 0L 160 0L 160 40L 0 40Z" stroke="none" fill="none"></path><g id="SvgjsG1158"><text id="SvgjsText1159" font-family="微软雅黑" text-anchor="middle" font-size="13px" width="21" fill="#323232" font-weight="400" align="middle" anchor="middle" family="微软雅黑" size="13px" weight="400" font-style="" y="10.05" transform="rotate(0)"><tspan id="SvgjsTspan1160" dy="16" x="80"><tspan id="SvgjsTspan1161" style="text-decoration:;">NO</tspan></tspan></text></g></g></svg>