<svg id="SvgjsSvg1006" width="353.1875" height="519.4000244140625" xmlns="http://www.w3.org/2000/svg" version="1.1" xmlns:xlink="http://www.w3.org/1999/xlink" xmlns:svgjs="http://svgjs.com/svgjs"><defs id="SvgjsDefs1007"><marker id="SvgjsMarker1044" markerWidth="16" markerHeight="12" refX="16" refY="6" viewBox="0 0 16 12" orient="auto" markerUnits="userSpaceOnUse"><path id="SvgjsPath1045" d="M0,2 L14,6 L0,11 L0,2" fill="#323232" stroke="#323232" stroke-width="2"></path></marker><marker id="SvgjsMarker1048" markerWidth="16" markerHeight="12" refX="16" refY="6" viewBox="0 0 16 12" orient="auto" markerUnits="userSpaceOnUse"><path id="SvgjsPath1049" d="M0,2 L14,6 L0,11 L0,2" fill="#323232" stroke="#323232" stroke-width="2"></path></marker><marker id="SvgjsMarker1052" markerWidth="16" markerHeight="12" refX="16" refY="6" viewBox="0 0 16 12" orient="auto" markerUnits="userSpaceOnUse"><path id="SvgjsPath1053" d="M0,2 L14,6 L0,11 L0,2" fill="#323232" stroke="#323232" stroke-width="2"></path></marker><marker id="SvgjsMarker1056" markerWidth="16" markerHeight="12" refX="16" refY="6" viewBox="0 0 16 12" orient="auto" markerUnits="userSpaceOnUse"><path id="SvgjsPath1057" d="M0,2 L14,6 L0,11 L0,2" fill="#323232" stroke="#323232" stroke-width="2"></path></marker><marker id="SvgjsMarker1060" markerWidth="16" markerHeight="12" refX="16" refY="6" viewBox="0 0 16 12" orient="auto" markerUnits="userSpaceOnUse"><path id="SvgjsPath1061" d="M0,2 L14,6 L0,11 L0,2" fill="#323232" stroke="#323232" stroke-width="2"></path></marker><marker id="SvgjsMarker1070" markerWidth="16" markerHeight="12" refX="16" refY="6" viewBox="0 0 16 12" orient="auto" markerUnits="userSpaceOnUse"><path id="SvgjsPath1071" d="M0,2 L14,6 L0,11 L0,2" fill="#323232" stroke="#323232" stroke-width="2"></path></marker><marker id="SvgjsMarker1074" markerWidth="16" markerHeight="12" refX="16" refY="6" viewBox="0 0 16 12" orient="auto" markerUnits="userSpaceOnUse"><path id="SvgjsPath1075" d="M0,2 L14,6 L0,11 L0,2" fill="#323232" stroke="#323232" stroke-width="2"></path></marker></defs><g id="SvgjsG1008" transform="translate(35.12498474121094,25)"><path id="SvgjsPath1009" d="M 0 0L 192 0L 192 39L 0 39Z" stroke="#323232" stroke-width="2" fill-opacity="1" fill="#ffffff"></path><g id="SvgjsG1010"><text id="SvgjsText1011" font-family="微软雅黑" text-anchor="middle" font-size="13px" width="145" fill="#323232" font-weight="400" align="middle" anchor="middle" family="微软雅黑" size="13px" weight="400" font-style="" y="1.55" transform="rotate(0)"><tspan id="SvgjsTspan1012" dy="16" x="96"><tspan id="SvgjsTspan1013" style="text-decoration:;">Respberry Pi send back </tspan></tspan><tspan id="SvgjsTspan1014" dy="16" x="96"><tspan id="SvgjsTspan1015" style="text-decoration:;">oder to manipulator</tspan></tspan></text></g></g><g id="SvgjsG1016" transform="translate(35.12498474121094,98)"><path id="SvgjsPath1017" d="M 0 0L 192 0L 192 39L 0 39Z" stroke="#323232" stroke-width="2" fill-opacity="1" fill="#ffffff"></path><g id="SvgjsG1018"><text id="SvgjsText1019" font-family="微软雅黑" text-anchor="middle" font-size="13px" width="148" fill="#323232" font-weight="400" align="middle" anchor="middle" family="微软雅黑" size="13px" weight="400" font-style="" y="1.55" transform="rotate(0)"><tspan id="SvgjsTspan1020" dy="16" x="96"><tspan id="SvgjsTspan1021" style="text-decoration:;">Manipulator telecontrol </tspan></tspan><tspan id="SvgjsTspan1022" dy="16" x="96"><tspan id="SvgjsTspan1023" style="text-decoration:;">robot motion  </tspan></tspan></text></g></g><g id="SvgjsG1024" transform="translate(33.87498474121094,170)"><path id="SvgjsPath1025" d="M 0 37.5L 97.25 0L 194.5 37.5L 97.25 75Z" stroke="#323232" stroke-width="2" fill-opacity="1" fill="#ffffff"></path><g id="SvgjsG1026"><text id="SvgjsText1027" font-family="微软雅黑" text-anchor="middle" font-size="13px" width="152" fill="#323232" font-weight="400" align="middle" anchor="middle" family="微软雅黑" size="13px" weight="400" font-style="" y="27.925" transform="rotate(0)"><tspan id="SvgjsTspan1028" dy="16" x="97.5"><tspan id="SvgjsTspan1029" style="text-decoration:;">Reach base station gate </tspan></tspan></text></g></g><g id="SvgjsG1030" transform="translate(35.12498474121094,271)"><path id="SvgjsPath1031" d="M 0 0L 192 0L 192 39L 0 39Z" stroke="#323232" stroke-width="2" fill-opacity="1" fill="#ffffff"></path><g id="SvgjsG1032"><text id="SvgjsText1033" font-family="微软雅黑" text-anchor="middle" font-size="13px" width="137" fill="#323232" font-weight="400" align="middle" anchor="middle" family="微软雅黑" size="13px" weight="400" font-style="" y="9.55" transform="rotate(0)"><tspan id="SvgjsTspan1034" dy="16" x="96"><tspan id="SvgjsTspan1035" style="text-decoration:;">Enter gate by tracking</tspan></tspan></text></g></g><g id="SvgjsG1036" transform="translate(24.999984741210938,342.79999923706055)"><path id="SvgjsPath1037" d="M 0 42.10000038146973L 106.125 0L 212.25 42.10000038146973L 106.125 84.20000076293945Z" stroke="#323232" stroke-width="2" fill-opacity="1" fill="#ffffff"></path><g id="SvgjsG1038"><text id="SvgjsText1039" font-family="微软雅黑" text-anchor="middle" font-size="13px" width="178" fill="#323232" font-weight="400" align="middle" anchor="middle" family="微软雅黑" size="13px" weight="400" font-style="" y="32.57100038528442" transform="rotate(0)"><tspan id="SvgjsTspan1040" dy="16" x="106.5"><tspan id="SvgjsTspan1041" style="text-decoration:;">Reach  specific stop position</tspan></tspan></text></g></g><g id="SvgjsG1042"><path id="SvgjsPath1043" d="M131.12498474121094 64L131.12498474121094 81L131.12498474121094 81L131.12498474121094 98" stroke="#323232" stroke-width="2" fill="none" marker-end="url(#SvgjsMarker1044)"></path></g><g id="SvgjsG1046"><path id="SvgjsPath1047" d="M131.12498474121094 137L131.12498474121094 153.5L131.12498474121094 153.5L131.12498474121094 170" stroke="#323232" stroke-width="2" fill="none" marker-end="url(#SvgjsMarker1048)"></path></g><g id="SvgjsG1050"><path id="SvgjsPath1051" d="M131.12498474121094 245L131.12498474121094 258L131.12498474121094 258L131.12498474121094 271" stroke="#323232" stroke-width="2" fill="none" marker-end="url(#SvgjsMarker1052)"></path></g><g id="SvgjsG1054"><path id="SvgjsPath1055" d="M131.12498474121094 310L131.12498474121094 326.3999996185303L131.12498474121094 326.3999996185303L131.12498474121094 342.79999923706055" stroke="#323232" stroke-width="2" fill="none" marker-end="url(#SvgjsMarker1056)"></path></g><g id="SvgjsG1058"><path id="SvgjsPath1059" d="M237.24998474121094 384.8999996185303L267.24998474121094 384.8999996185303L267.24998474121094 290.5L227.12498474121094 290.5" stroke="#323232" stroke-width="2" fill="none" marker-end="url(#SvgjsMarker1060)"></path></g><g id="SvgjsG1062" transform="translate(55.12498474121094,456.4000015258789)"><path id="SvgjsPath1063" d="M 0 0L 152 0L 152 38L 0 38Z" stroke="#323232" stroke-width="2" fill-opacity="1" fill="#ffffff"></path><g id="SvgjsG1064"><text id="SvgjsText1065" font-family="微软雅黑" text-anchor="middle" font-size="13px" width="29" fill="#323232" font-weight="400" align="middle" anchor="middle" family="微软雅黑" size="13px" weight="400" font-style="" y="9.05" transform="rotate(0)"><tspan id="SvgjsTspan1066" dy="16" x="76"><tspan id="SvgjsTspan1067" style="text-decoration:;">Stop</tspan></tspan></text></g></g><g id="SvgjsG1068"><path id="SvgjsPath1069" d="M131.12498474121094 427L131.12498474121094 441.70000076293945L131.12498474121094 441.70000076293945L131.12498474121094 456.4000015258789" stroke="#323232" stroke-width="2" fill="none" marker-end="url(#SvgjsMarker1070)"></path></g><g id="SvgjsG1072"><path id="SvgjsPath1073" d="M228.37498474121094 207.5L258.37498474121094 207.5L258.37498474121094 117.5L227.12498474121094 117.5" stroke="#323232" stroke-width="2" fill="none" marker-end="url(#SvgjsMarker1074)"></path></g><g id="SvgjsG1076" transform="translate(74.8583221435544,235.16666666666663)"><path id="SvgjsPath1077" d="M 0 0L 160 0L 160 40L 0 40Z" stroke="none" fill="none"></path><g id="SvgjsG1078"><text id="SvgjsText1079" font-family="微软雅黑" text-anchor="middle" font-size="13px" width="22" fill="#323232" font-weight="400" align="middle" anchor="middle" family="微软雅黑" size="13px" weight="400" font-style="" y="10.05" transform="rotate(0)"><tspan id="SvgjsTspan1080" dy="16" x="80"><tspan id="SvgjsTspan1081" style="text-decoration:;">YES</tspan></tspan></text></g></g><g id="SvgjsG1082" transform="translate(78.19165547688777,421.83333333333326)"><path id="SvgjsPath1083" d="M 0 0L 160 0L 160 40L 0 40Z" stroke="none" fill="none"></path><g id="SvgjsG1084"><text id="SvgjsText1085" font-family="微软雅黑" text-anchor="middle" font-size="13px" width="22" fill="#323232" font-weight="400" align="middle" anchor="middle" family="微软雅黑" size="13px" weight="400" font-style="" y="10.05" transform="rotate(0)"><tspan id="SvgjsTspan1086" dy="16" x="80"><tspan id="SvgjsTspan1087" style="text-decoration:;">YES</tspan></tspan></text></g></g><g id="SvgjsG1088" transform="translate(160.6916554768876,174.33333333333326)"><path id="SvgjsPath1089" d="M 0 0L 160 0L 160 40L 0 40Z" stroke="none" fill="none"></path><g id="SvgjsG1090"><text id="SvgjsText1091" font-family="微软雅黑" text-anchor="middle" font-size="13px" width="21" fill="#323232" font-weight="400" align="middle" anchor="middle" family="微软雅黑" size="13px" weight="400" font-style="" y="10.05" transform="rotate(0)"><tspan id="SvgjsTspan1092" dy="16" x="80"><tspan id="SvgjsTspan1093" style="text-decoration:;">NO</tspan></tspan></text></g></g><g id="SvgjsG1094" transform="translate(168.19165547688885,353.2777774598861)"><path id="SvgjsPath1095" d="M 0 0L 160 0L 160 40L 0 40Z" stroke="none" fill="none"></path><g id="SvgjsG1096"><text id="SvgjsText1097" font-family="微软雅黑" text-anchor="middle" font-size="13px" width="21" fill="#323232" font-weight="400" align="middle" anchor="middle" family="微软雅黑" size="13px" weight="400" font-style="" y="10.05" transform="rotate(0)"><tspan id="SvgjsTspan1098" dy="16" x="80"><tspan id="SvgjsTspan1099" style="text-decoration:;">NO</tspan></tspan></text></g></g></svg>